<svg xmlns="http://www.w3.org/2000/svg" xmlns:xlink="http://www.w3.org/1999/xlink" id="Layer_1" x="0px" y="0px" viewBox="0 0 222 85" style="enable-background:new 0 0 222 85;" xml:space="preserve">
<style type="text/css">
	.st0{fill-rule:evenodd;clip-rule:evenodd;fill:#CCCACA;}
	.st1{fill-rule:evenodd;clip-rule:evenodd;fill:#494847;}
	.st2{fill-rule:evenodd;clip-rule:evenodd;fill:#FFFFFF;}
	.st3{fill-rule:evenodd;clip-rule:evenodd;fill:#E31836;}
	.st4{fill:#494847;}
	.st5{font-family:'MyriadPro-Regular';}
	.st6{font-size:23.3471px;}
</style>
<metadata>

                                                                                                    
                                                                                                    
                                                                                                    
                                                                                                    
                                                                                                    
                                                                                                    
                                                                                                    
                                                                                                    
                                                                                                    
                                                                                                    
                                                                                                    
                                                                                                    
                                                                                                    
                                                                                                    
                                                                                                    
                                                                                                    
                                                                                                    
                                                                                                    
                                                                                                    
                                                                                                    
                           

	</metadata>
<path id="&#x424;&#x438;&#x433;&#x443;&#x440;&#x430;_1" class="st0" d="M55.5,80.1c0,0-38.6-16.3-24.3-54.5c0,0,4.1-2,14.6-2.5c0.2,0,0.3,0,0.5,0  c0.2,0,2.2-2.3,7.4-2.9c0,0-0.8-2.1-24.7,2.6c0,0-18,37.4,26.6,59.9c0,0,42.6-19.9,26.6-59.6c0,0-9.4-2.6-17-2.6l-1.9,1.9  c0,0,13.4,1.5,16.7,2.9C79.9,25.3,96.3,58.4,55.5,80.1z"></path>
<path id="&#x424;&#x438;&#x433;&#x443;&#x440;&#x430;_2" class="st1" d="M53.9,61.8c0,0-26.2-19.6-8-38.8c0,0-12.6,0.6-14.7,2.2c0,0-17.4,35.6,24.3,55.4  c0,0,40.6-17.7,25-56.1c0,0-11.3-3-17-2.6c0,0-3.6,4.6-8.6,6.7C54.9,28.8,39.7,38.4,53.9,61.8z"></path>
<path id="&#x424;&#x438;&#x433;&#x443;&#x440;&#x430;_3" class="st0" d="M53.6,61.8c0,0-8.3-7.8-10.6-15.4s-2.1-13-0.6-16.3c1.4-3.4,3.9-6.2,6.4-7.4  s4.2-1.3,6.1-1.9c1.9-0.7,5.2-0.8,7.4-2.6c2.1-1.7,4.5-5,4.5-5.4c0-0.4-0.3,3.4-2.9,6.7c-2.6,3.3-8.3,7-8.3,7c-0.1,0-5,4-5.4,5.1  c-0.5,1.2-2.6,2.4-3.2,6.4s-0.8,6,0.3,10.9S53.3,62.1,53.6,61.8z"></path>
<path id="&#x424;&#x438;&#x433;&#x443;&#x440;&#x430;_4" class="st2" d="M53.9,61.8c0,0-15.7-26.9,11.9-35.9l-3.8,19.2C61.9,45.2,53.1,47.1,53.9,61.8z"></path>
<path id="&#x424;&#x438;&#x433;&#x443;&#x440;&#x430;_5" class="st2" d="M65.5,32.7l5.4-1L66.4,49c0,0-10.3-0.3-12.5,11.9c0,0-0.9-10.9,8.6-15.1L65.5,32.7z"></path>
<path id="&#x424;&#x438;&#x433;&#x443;&#x440;&#x430;_6" class="st2" d="M53.9,61.5c0,0,2.2-12.5,13.1-11.9l3.2-12.5l5.1,0.3l-4.8,15.1  C70.6,52.5,59.8,49.9,53.9,61.5z"></path>
<path id="&#x424;&#x438;&#x433;&#x443;&#x440;&#x430;_7" class="st0" d="M51,64.1c0,0-7.8,0.6-16.3-4.8c0,0-5.8-2.5-14.1-2.2c0,0,6.6,2.9,10.9,6.1  S46.3,67.4,51,64.1z"></path>
<path id="&#x424;&#x438;&#x433;&#x443;&#x440;&#x430;_8" class="st0" d="M41.8,67.9c0,0,15.7-0.1,28.2-11.5c0,0,8.3-5.7,23.4-5.4c0,0-15.7,6.6-21.1,13.1  C72.2,64.1,61.6,74.2,41.8,67.9z"></path>
<path id="&#x424;&#x438;&#x433;&#x443;&#x440;&#x430;_9" class="st0" d="M38.2,19.9c0,0-0.3-2.8,3.2-3.2c0,0,3.3,0.1,3.2,3.2c0,0,0.1,2.5-3.2,2.9  C41.4,22.7,38.3,22.7,38.2,19.9z"></path>
<path id="&#x424;&#x438;&#x433;&#x443;&#x440;&#x430;_11" class="st3" d="M66.7,5.1"></path>
<path id="&#x424;&#x438;&#x433;&#x443;&#x440;&#x430;_12" class="st1" d="M63.5,4.8l2.9-2.2V0l1.9,2.2l1.9-0.3l-0.6,1.6l1,2.2l-1.9-0.6l-1.3,3.5l-0.3-3.5L63.5,4.8  z"></path>
<text transform="matrix(1 0 0 1 111.5059 46.2864)"><tspan x="0" y="0" class="st4 st5 st6">TMC</tspan><tspan x="0" y="28" class="st4 st5 st6">Tashkent</tspan></text>
</svg>